<?xml version="1.0" encoding="utf-8"?>
<!-- Generator: Adobe Illustrator 26.0.1, SVG Export Plug-In . SVG Version: 6.00 Build 0)  -->
<svg version="1.1" xmlns="http://www.w3.org/2000/svg" xmlns:xlink="http://www.w3.org/1999/xlink" x="0px" y="0px"
	 viewBox="0 0 1122 1122" style="enable-background:new 0 0 1122 1122;" xml:space="preserve">
<style type="text/css">
	.st0{opacity:0.63;fill:#EDC82F;}
	.st1{fill:#233C7D;}
	.st2{fill:#EDC82F;}
</style>
<g id="Bg">
</g>
<g id="Object">
	<path class="st0" d="M640.15,460.2c0-43.71-35.47-79.13-79.16-79.13c-43.72,0-79.16,35.42-79.16,79.13
		c0,29.68,16.35,55.5,40.52,69.05l1.64-52.51c0-21.48,17.43-38.91,38.94-38.91h2.21c16.94,0,30.67,13.73,30.67,30.67v62.71
		C622.02,518.32,640.15,491.39,640.15,460.2z"/>
	<path class="st1" d="M595.82,468.49c0-16.94-13.73-30.67-30.67-30.67h-2.21c-21.51,0-38.94,17.43-38.94,38.91l-1.64,52.51
		l-3.65,115.69c-0.83,3.57-1.3,84.01-1.3,84.01c-6.8-6.93-14.37-14.86-21.17-22.45c-15.88-17.71-45.05-29.65-64.44-31.85
		c-10.21-1.17-18.01,0.23-23.21,4.13c-1.66,1.27-3.29,2.68-4.81,4.21c-10.01,9.86-17.56,25.78-10.57,37.44
		c3.02,5.1,8.21,8.48,13.73,12.03c7.31,4.74,19.62,9.87,28.87,21.68c15.5,19.83,51.38,64.15,73.43,87.8
		c4.59,2.85,14.3,12.54,18.88,14.99c13.92,8.89,25.29,17.26,29.23,21.79c3.08,3.53,21.3,12.86,21.3,12.86
		c14.73,9.33,41.54,18.05,72.51,18.05c30.91,0,58.99,1.85,79.74-16.4h1.11l0.55-1.38c21.11-19.34,34.24-46.13,34.24-75.76
		c0-7.33,0-34.35,0-39.43V674.46c0-6.94-1.53-30.21-21.09-37.2c-9.4-3.34-18.29-2.08-25.87,1.19l-1.77,0.08l-0.55,0.04
		c-3.4-12.78-11.9-21.03-24.47-23.22c-15.18-2.63-25.7,1.91-32.03,6.5c-6.29-13.52-18.9-20.57-35.97-19.13
		c-12.8,1.08-22.32,7.37-29.23,15.65V531.2V468.49z"/>
	<path class="st2" d="M737.62,591.62l15.71,17.48c3.02,3.4,8.5,3.19,11.16-0.49c30.29-42.03,46.98-92.62,46.98-145.83
		c0-138.13-112.37-250.48-250.48-250.48c-9.48,0-19.09,0.53-28.59,1.59c-115.26,12.84-207.95,105.87-220.39,221.22
		c-6.78,62.77,9.83,124,45.47,173.49c2.64,3.7,8.12,3.89,11.18,0.51l15.69-17.47c2.23-2.47,2.4-6.14,0.51-8.88
		c-25.15-36.74-38.35-80.63-37.03-126.26c3.19-110.76,92.36-201.57,202.99-206.73c122.32-6.02,223.42,92.03,223.42,212.99
		c0,43.28-13.2,84.9-37.16,119.96C735.21,585.5,735.37,589.15,737.62,591.62z"/>
	<path class="st2" d="M661.21,513.26l16.63,18.5c3.4,3.81,9.58,2.94,11.86-1.6c10.5-20.75,16.03-43.58,16.03-67.37
		c0-70.96-50.38-132.99-119.83-147.53c-20.26-4.29-41.54-4.29-61.86,0c-69.41,14.54-119.79,76.57-119.79,147.53
		c0,23.81,5.53,46.62,16.01,67.37c2.32,4.55,8.46,5.42,11.88,1.6l16.62-18.5c1.87-2.08,2.3-5.02,1.25-7.59
		c-5.59-13.58-8.53-28.14-8.53-42.89c0-47.45,30-90.31,74.63-106.65c24.93-9.1,52.84-9.1,77.75,0
		c44.64,16.33,74.62,59.2,74.62,106.65c0,14.75-2.94,29.31-8.5,42.89C658.93,508.26,659.35,511.2,661.21,513.26z"/>
</g>
<g id="Capa_1">
</g>
<g id="Capa_2">
</g>
</svg>
