<?xml version="1.0" encoding="utf-8"?>
<!-- Generator: Adobe Illustrator 26.0.1, SVG Export Plug-In . SVG Version: 6.00 Build 0)  -->
<svg version="1.1" xmlns="http://www.w3.org/2000/svg" xmlns:xlink="http://www.w3.org/1999/xlink" x="0px" y="0px"
	 viewBox="0 0 400 118.3" style="enable-background:new 0 0 400 118.3;" xml:space="preserve">
<style type="text/css">
	.st0{fill:#FBCB00;}
	.st1{fill:#010202;}
	.st2{fill:#233C7D;}
</style>
<g id="Capa_1">
</g>
<g id="Capa_2">
	<path class="st0" d="M332.32,70.98H67.68c-11.86,0-21.47-9.61-21.47-21.47V21.47C46.21,9.61,55.82,0,67.68,0h264.64
		c11.86,0,21.47,9.61,21.47,21.47v28.04C353.79,61.37,344.18,70.98,332.32,70.98z"/>
	<g>
		<g>
			<path class="st1" d="M103.57,13.5v10.7H89.19v34.1H75.97v-34.1H61.59V13.5H103.57z"/>
			<path class="st1" d="M133.12,13.5c10.05,0,15.83,4.95,15.83,13.51v2.41c0,5.28-2.2,9.29-6.19,11.57l8.05,17.32h-14.11
				l-7.09-15.11h-7.91V58.3h-13.21V13.5H133.12z M121.69,32.95h9.43c2.82,0,4.75-1.34,4.75-4.15v-1.14c0-2.67-1.92-4.08-4.75-4.08
				h-9.43V32.95z"/>
			<path class="st1" d="M186.75,13.5l13.97,44.8h-12.8l-2.48-8.03h-18.03l-2.48,8.03h-12.11l13.97-44.8H186.75z M170.72,39.84h11.42
				l-4.47-14.51h-2.48L170.72,39.84z"/>
			<path class="st1" d="M224.36,12.83c11.56,0,19.41,4.74,19.41,13.84v1.74h-13.01v-1.74c0-2.47-2.2-4.08-6.47-4.08h-0.89
				c-4.34,0-6.54,1.34-6.54,2.94v0.74c0,2.27,1.79,3.21,11.29,5.15c11.29,2.61,16.31,6.42,16.31,13.77v0.67
				c0,7.42-6.4,13.11-20.03,13.11h-1.1c-13.56,0-20.37-5.82-20.37-14.91v-1.47h13.01v1.54c0,3.74,2.75,5.01,7.5,5.01h0.9
				c4.47,0,7.02-1.14,7.02-3.14v-0.47c0-2.07-2.55-3.35-12.46-5.42c-10.32-2.07-15.21-5.95-15.21-13.11v-1.07
				c0-8.43,7.36-13.11,19.54-13.11H224.36z"/>
			<path class="st1" d="M280.4,13.5l13.97,44.8h-12.8l-2.48-8.03h-18.03l-2.48,8.03h-12.11l13.97-44.8H280.4z M264.36,39.84h11.42
				l-4.47-14.51h-2.48L264.36,39.84z"/>
			<path class="st1" d="M318.27,12.83c13.21,0,20.51,6.35,20.51,16.92v2.21h-13.35v-2.21c-0.07-3.48-2.13-5.55-7.3-5.55h-1.1
				c-4.96,0-7.37,2.21-7.37,6.55v10.03c0,4.75,2.48,6.82,7.43,6.82h1.1c5.09,0,7.43-2.07,7.43-5.89v-1.4h13.35v1.4
				c0,11.17-7.43,17.25-20.71,17.25h-1.1c-13.01,0-20.85-6.09-20.85-18.19V30.75c0-11.43,7.85-17.92,20.85-17.92H318.27z"/>
		</g>
	</g>
	<g>
		<path class="st2" d="M296.53,86.28c6.82,0,11.65,3.34,11.65,9.19v2.32h-5.85v-2.32c0-2.74-2.13-4.45-5.85-4.45h-0.51
			c-3.71,0-5.85,1.62-5.85,3.85v0.51c0,2.46,1.9,3.16,7.98,4.69c7.01,1.81,10.63,3.99,10.63,9.19v0.46c0,4.87-4.04,8.58-12.2,8.58
			h-0.56c-8.12,0-12.16-3.71-12.16-9.65v-2.23h5.85v2.27c0,3.43,2.18,4.87,6.36,4.87h0.51c4.18,0,6.31-1.44,6.31-3.8v-0.42
			c0-2.41-2.09-3.43-8.26-4.87c-6.54-1.48-10.3-3.57-10.3-8.96v-0.56c0-5.38,4.41-8.68,11.69-8.68H296.53z"/>
		<path class="st2" d="M315.66,118.3h-0.14c-1.81,0-3.34-1.3-3.34-3.29v-0.09c0-1.9,1.48-3.29,3.34-3.29h0.14
			c1.9,0,3.39,1.35,3.39,3.29V115C319.05,117,317.57,118.3,315.66,118.3z"/>
		<path class="st2" d="M341.28,86.74l10.21,31.09h-5.89l-2.51-7.66h-12.81l-2.46,7.66h-5.48l10.07-31.09H341.28z M331.86,105.3h9.61
			l-4.18-12.71h-1.3L331.86,105.3z"/>
	</g>
</g>
</svg>
