<svg xmlns="http://www.w3.org/2000/svg" viewBox="0 0 14.64 5.63"><defs><style>.cls-1{fill:#faca00;}.cls-2{fill:#fff;}</style></defs><g id="Capa_1" data-name="Capa 1"><rect class="cls-1" width="14.64" height="3.38"/></g><g id="Capa_2" data-name="Capa 2"><path d="M4.09,7.91v.51H3.41V10H2.78V8.42H2.09V7.91Z" transform="translate(-1.36 -7.27)"/><path d="M5.5,7.91c.48,0,.75.23.75.64v.11A.6.6,0,0,1,6,9.22l.38.82H5.67l-.34-.72H5V10H4.33V7.91ZM5,8.83H5.4c.14,0,.23-.06.23-.19V8.58c0-.13-.09-.19-.23-.19H5Z" transform="translate(-1.36 -7.27)"/><path d="M8.05,7.91,8.72,10H8.11L8,9.66H7.13L7,10H6.44L7.1,7.91ZM7.29,9.16h.54l-.21-.69H7.5Z" transform="translate(-1.36 -7.27)"/><path d="M9.84,7.88c.55,0,.92.22.92.65v.09h-.62V8.53c0-.11-.1-.19-.3-.19H9.79c-.2,0-.31.06-.31.14v0c0,.1.09.15.54.24s.78.31.78.66v0c0,.35-.31.62-1,.62H9.79c-.64,0-1-.28-1-.71V9.29h.62v.07c0,.18.13.24.36.24h0c.21,0,.33,0,.33-.15v0c0-.1-.12-.16-.59-.26s-.72-.28-.72-.62V8.5c0-.4.35-.62.93-.62Z" transform="translate(-1.36 -7.27)"/><path d="M12.51,7.91,13.17,10h-.61l-.11-.38h-.86l-.12.38h-.58l.67-2.13Zm-.77,1.25h.55l-.22-.69H12Z" transform="translate(-1.36 -7.27)"/><path d="M14.31,7.88c.63,0,1,.3,1,.8v.11h-.64V8.68c0-.16-.1-.26-.35-.26h-.05c-.24,0-.35.1-.35.31v.48c0,.22.12.32.35.32h.06c.24,0,.35-.1.35-.28V9.18h.64v.07c0,.53-.36.82-1,.82h-.05c-.62,0-1-.29-1-.86V8.73c0-.55.38-.85,1-.85Z" transform="translate(-1.36 -7.27)"/><path class="cls-2" d="M13.27,11.37c.33,0,.56.16.56.44v.11h-.28v-.11c0-.13-.1-.21-.28-.21h0c-.18,0-.28.07-.28.18v0c0,.12.09.15.38.23s.51.19.51.43v0c0,.23-.2.4-.59.4h0c-.39,0-.58-.17-.58-.45v-.11H13v.11c0,.16.1.23.3.23h0c.2,0,.31-.07.31-.18v0c0-.12-.1-.16-.4-.23s-.49-.17-.49-.43v0c0-.25.21-.41.56-.41Z" transform="translate(-1.36 -7.27)"/><path class="cls-2" d="M14.19,12.89h0a.15.15,0,0,1-.16-.15h0a.15.15,0,0,1,.16-.15h0a.15.15,0,0,1,.16.15h0A.15.15,0,0,1,14.19,12.89Z" transform="translate(-1.36 -7.27)"/><path class="cls-2" d="M15.4,11.39l.49,1.48h-.28l-.12-.36h-.61l-.12.36H14.5L15,11.39Zm-.44.89h.45l-.2-.61h-.06Z" transform="translate(-1.36 -7.27)"/></g></svg>