<?xml version="1.0" encoding="utf-8"?>
<!-- Generator: Adobe Illustrator 26.0.1, SVG Export Plug-In . SVG Version: 6.00 Build 0)  -->
<svg version="1.1" xmlns="http://www.w3.org/2000/svg" xmlns:xlink="http://www.w3.org/1999/xlink" x="0px" y="0px"
	 viewBox="0 0 3844.67 3000" style="enable-background:new 0 0 3844.67 3000;" xml:space="preserve">
<style type="text/css">
	.st0{fill:#FFFFFF;}
	.st1{fill:#F9C800;}
	.st2{fill:#043980;}
</style>
<g id="Layer_1">
</g>
<g id="Capa_1">
	<path class="st0" d="M1968.99,568.3c-17.11,1.04-34.29,1.46-51.33,3.2c-267.42,27.27-460.69,161.31-566.44,408.74
		c-89.38,209.12-61.51,417.66,28.7,620.45c50.27,113.01,120.33,214.13,200.62,307.43c112.27,130.47,227.46,258.44,341.9,387.03
		c26.92,30.25,65.4,28.79,93.28-2.47c98.61-110.57,197.8-220.64,295.08-332.36c101.65-116.74,194.4-239.86,255.78-383.57
		c59.4-139.06,84.91-283.45,63.59-434.16C2583.6,813.53,2301.32,569.03,1968.99,568.3z M1967.5,2577.22
		c12.34,0,24.7,0.32,37.03-0.05c119.19-3.55,236.91-17.22,347.87-63.53c34.81-14.53,68.56-35.27,97.42-59.55
		c43.59-36.67,42.74-85.19,2.76-125.5c-11.47-11.57-24.58-22.02-38.4-30.65c-61.43-38.35-130.04-57.38-200.24-71.22
		c-6.19-1.22-15.81,3.34-20.54,8.34c-22.63,23.87-43.93,49-66.09,73.33c-22.12,24.29-42.08,51.49-67.6,71.55
		c-65.37,51.36-156.32,38.27-213.94-27.55c-33.41-38.17-66.93-76.25-99.79-114.9c-8.54-10.04-16.89-14.32-30.03-10.29
		c-47.08,14.46-95.78,24.83-141.05,43.56c-33.46,13.84-65.77,34.67-92.83,58.84c-41.62,37.17-41.1,87.15,1.51,123.27
		c29.27,24.81,63.5,46.22,98.95,60.85C1705.55,2564.47,1835.83,2576.34,1967.5,2577.22z"/>
	<path d="M1968.99,568.3c332.33,0.72,614.61,245.23,661.18,574.28c21.33,150.72-4.18,295.1-63.59,434.16
		c-61.39,143.72-154.13,266.83-255.78,383.57c-97.28,111.73-196.47,221.8-295.08,332.36c-27.88,31.26-66.36,32.72-93.28,2.47
		c-114.44-128.6-229.63-256.56-341.9-387.03c-80.29-93.3-150.35-194.42-200.62-307.43c-90.21-202.79-118.08-411.33-28.7-620.45
		c105.75-247.43,299.02-381.47,566.44-408.74C1934.7,569.77,1951.88,569.34,1968.99,568.3z M1968.17,866.17
		c-204.07,0.63-368.03,164.54-367.67,367.59c0.35,197.47,162.02,372.06,376.19,367.1c196.72-4.55,357.4-165.61,357.16-369.58
		C2333.61,1029.97,2168.54,865.54,1968.17,866.17z"/>
	<path d="M1967.5,2577.22c-131.67-0.87-261.96-12.74-384.97-63.51c-35.44-14.63-69.68-36.04-98.95-60.85
		c-42.62-36.12-43.13-86.1-1.51-123.27c27.06-24.17,59.36-44.99,92.83-58.84c45.27-18.73,93.97-29.1,141.05-43.56
		c13.14-4.04,21.5,0.25,30.03,10.29c32.85,38.65,66.38,76.73,99.79,114.9c57.62,65.83,148.58,78.91,213.94,27.55
		c25.52-20.05,45.48-47.26,67.6-71.55c22.16-24.33,43.46-49.46,66.09-73.33c4.74-5,14.35-9.56,20.54-8.34
		c70.19,13.84,138.81,32.87,200.24,71.22c13.82,8.63,26.93,19.09,38.4,30.65c39.97,40.31,40.83,88.83-2.76,125.5
		c-28.86,24.28-62.61,45.02-97.42,59.55c-110.96,46.31-228.68,59.98-347.87,63.53C1992.2,2577.53,1979.84,2577.22,1967.5,2577.22z"
		/>
	<path class="st1" d="M1973.2,715.77c289.2,4.63,516.89,240.56,511.47,529.99c-5.28,282.14-240.55,507.92-524.28,503.15
		c-287.49-4.83-516.33-240.84-510.52-526.51C1455.56,941.99,1693.86,711.3,1973.2,715.77z"/>
	<g>
		<path class="st2" d="M1787.18,1025.21V895.86h359.42v129.35h-106.26v546.06h-146.91v-546.06H1787.18z"/>
	</g>
</g>
<g id="Object">
</g>
</svg>
